<svg width="50" height="50" viewBox="0 0 50 50" fill="none" xmlns="http://www.w3.org/2000/svg">
<circle cx="25" cy="25" r="25" fill="#FEE500"/>
<path d="M24.4881 10C15.3608 10 8 15.7915 8 22.8224C8 27.3862 11.0621 31.3824 15.6553 33.6641L14.1006 39.3747C14.0713 39.4602 14.0668 39.5522 14.0876 39.6399C14.1084 39.7279 14.1537 39.8087 14.2184 39.8728C14.3128 39.9544 14.4342 39.9997 14.56 40C14.6643 39.9919 14.7632 39.9512 14.8426 39.8843L21.5321 35.4481C22.5196 35.582 23.515 35.6515 24.5119 35.6564C33.6276 35.6564 41 29.865 41 22.8224C41 15.7799 33.6038 10 24.4881 10Z" fill="#392020"/>
<path d="M15.2216 20.9326H13.591C13.389 20.9385 13.1893 20.8867 13.0155 20.7834C12.9384 20.735 12.872 20.6712 12.8207 20.596C12.7693 20.5208 12.7341 20.4358 12.7171 20.3464C12.712 20.2897 12.712 20.2327 12.7171 20.176C12.7121 20.0698 12.7327 19.964 12.7772 19.8675C12.8217 19.771 12.8888 19.6867 12.9729 19.6217C13.1587 19.4872 13.383 19.4161 13.6124 19.4192H18.5254C18.7291 19.412 18.9301 19.4679 19.1009 19.5791C19.1799 19.6253 19.2477 19.6885 19.2993 19.7641C19.3508 19.8396 19.385 19.9257 19.3993 20.0161C19.4046 20.0692 19.4046 20.1228 19.3993 20.176C19.4044 20.2836 19.3838 20.3909 19.3394 20.4891C19.2949 20.5873 19.2278 20.6735 19.1436 20.7407C18.9623 20.8751 18.7402 20.9429 18.5148 20.9326H16.9375V26.5385C16.9439 26.6577 16.9254 26.7772 16.8832 26.8892C16.841 27.001 16.776 27.1029 16.6923 27.1884C16.6121 27.2702 16.5157 27.3342 16.4092 27.3764C16.3028 27.4186 16.1887 27.4382 16.0742 27.4337C15.8741 27.4393 15.6781 27.3753 15.52 27.2524C15.3695 27.1324 15.2673 26.9622 15.2323 26.7729C15.2217 26.6952 15.2217 26.6163 15.2323 26.5385L15.2216 20.9326Z" fill="#FEE500"/>
<path d="M19.8698 19.8347C19.9167 19.6594 20.0267 19.5075 20.1789 19.4084C20.3409 19.3166 20.5256 19.2722 20.7117 19.2805H21.1167C21.3142 19.2734 21.5098 19.3214 21.6816 19.4191C21.8636 19.5415 21.993 19.7279 22.0439 19.9413L24.1754 25.9627C24.2307 26.1199 24.2769 26.28 24.3139 26.4424C24.3176 26.5099 24.3176 26.5773 24.3139 26.6447C24.3176 26.7488 24.2984 26.8521 24.2579 26.9479C24.2174 27.0435 24.1565 27.1292 24.0795 27.199C24.0048 27.2755 23.9152 27.336 23.8161 27.3764C23.7172 27.4165 23.6109 27.4361 23.504 27.4334C23.3396 27.4499 23.1745 27.4103 23.0353 27.3214C22.8961 27.2325 22.7909 27.0992 22.7366 26.9434L22.289 25.6325H19.4861L19.0385 26.9434C18.9856 27.1024 18.8791 27.2383 18.7372 27.3275C18.5954 27.417 18.4269 27.4544 18.2605 27.4334C18.0803 27.4382 17.9038 27.3819 17.7596 27.2736C17.6192 27.1619 17.5244 27.0028 17.4932 26.826C17.4875 26.7658 17.4875 26.705 17.4932 26.6447C17.4749 26.5391 17.4749 26.431 17.4932 26.3251C17.4932 26.208 17.5678 26.08 17.6104 25.9627L19.8698 19.8347ZM20.9355 21.2309L19.9231 24.4282H21.9373L20.9355 21.2309Z" fill="#FEE500"/>
<path d="M24.558 20.1761C24.5472 19.9369 24.6315 19.7032 24.7925 19.526C24.8744 19.4435 24.9726 19.379 25.0809 19.3368C25.1892 19.2945 25.3052 19.2754 25.4212 19.2808C25.6209 19.2785 25.8157 19.3422 25.9755 19.462C26.1234 19.587 26.2219 19.7609 26.2524 19.9522C26.2631 20.0265 26.2631 20.1019 26.2524 20.1761V25.782H29.1833C29.3864 25.7793 29.5863 25.8345 29.7588 25.9418C29.8364 25.9896 29.903 26.0533 29.9545 26.1284C30.006 26.2038 30.041 26.289 30.0572 26.3788C30.0572 26.3788 30.0572 26.4852 30.0572 26.5386C30.0623 26.6448 30.0416 26.7504 29.9972 26.8468C29.9526 26.9434 29.8855 27.0278 29.8016 27.0929C29.6157 27.2272 29.3914 27.2984 29.1621 27.2952H25.5598C25.3304 27.31 25.1024 27.2503 24.9097 27.1247C24.7374 26.996 24.6226 26.8046 24.59 26.5919C24.5822 26.4749 24.5822 26.3573 24.59 26.2402L24.558 20.1761Z" fill="#FEE500"/>
<path d="M30.2492 20.1763C30.2428 19.9379 30.3265 19.7057 30.4836 19.5262C30.6434 19.3811 30.8484 19.2954 31.0639 19.2837C31.2792 19.2721 31.4922 19.3351 31.6666 19.4622C31.8179 19.5862 31.9201 19.76 31.9544 19.9524C31.9597 20.0269 31.9597 20.1018 31.9544 20.1763V22.7873L34.6508 19.6753C34.7546 19.5692 34.865 19.4696 34.981 19.377C35.0907 19.3118 35.2163 19.2785 35.3434 19.281C35.5298 19.28 35.7119 19.3358 35.8656 19.4409C35.9381 19.4897 35.9999 19.5526 36.0477 19.6259C36.0952 19.6991 36.1276 19.7812 36.1428 19.8672C36.147 19.8883 36.147 19.9101 36.1428 19.9312C36.1377 19.9558 36.1377 19.9812 36.1428 20.0058C36.1425 20.1179 36.113 20.2281 36.0575 20.3255C36.001 20.4287 35.933 20.5251 35.855 20.6132L34.0859 22.5529L36.2174 25.8566V25.9633C36.3281 26.1159 36.4143 26.285 36.4733 26.4642V26.5173C36.4855 26.641 36.4677 26.7655 36.4212 26.8808C36.3748 26.9957 36.3013 27.0979 36.2067 27.1781C36.0289 27.3127 35.8114 27.3838 35.5887 27.3807C35.4406 27.3868 35.2935 27.3536 35.1624 27.2848C35.0203 27.1895 34.9035 27.0615 34.8212 26.9118L32.8389 23.7145L31.8904 24.7057V26.4855C31.8967 26.7239 31.8131 26.9559 31.656 27.1356C31.5718 27.2179 31.4717 27.2822 31.3615 27.3244C31.2516 27.3663 31.1343 27.3857 31.0167 27.3807C30.82 27.3849 30.628 27.3209 30.473 27.1996C30.3225 27.0796 30.2203 26.9092 30.1852 26.7199C30.1749 26.6421 30.1749 26.5633 30.1852 26.4855L30.2492 20.1763Z" fill="#FEE500"/>
</svg>
