<svg width="50" height="50" viewBox="0 0 50 50" fill="none" xmlns="http://www.w3.org/2000/svg">
<g clip-path="url(#clip0_59_315)">
<path d="M25 50C38.8071 50 50 38.8071 50 25C50 11.1929 38.8071 0 25 0C11.1929 0 0 11.1929 0 25C0 38.8071 11.1929 50 25 50Z" fill="#3B5998"/>
<path d="M31.285 25.9786H26.824V42.3214H20.0653V25.9786H16.8509V20.2351H20.0653V16.5184C20.0653 13.8605 21.3278 9.69861 26.8842 9.69861L31.8906 9.71955V15.2946H28.2581C27.6623 15.2946 26.8245 15.5923 26.8245 16.8602V20.2404H31.8755L31.285 25.9786Z" fill="white"/>
</g>
<defs>
<clipPath id="clip0_59_315">
<rect width="50" height="50" fill="white"/>
</clipPath>
</defs>
</svg>
